<svg width="5" height="15" viewBox="0 0 5 15" fill="none" xmlns="http://www.w3.org/2000/svg">
<g clip-path="url(#clip0_899_487)">
<path d="M5 12.666C5 11.5614 3.88071 10.666 2.5 10.666C1.11929 10.666 0 11.5614 0 12.666C0 13.7706 1.11929 14.666 2.5 14.666C3.88071 14.666 5 13.7706 5 12.666Z" fill="white"/>
<path d="M5 7.33301C5 6.22844 3.88071 5.33301 2.5 5.33301C1.11929 5.33301 0 6.22844 0 7.33301C0 8.43758 1.11929 9.33301 2.5 9.33301C3.88071 9.33301 5 8.43758 5 7.33301Z" fill="white"/>
<path d="M5 2C5 0.89543 3.88071 0 2.5 0C1.11929 0 0 0.89543 0 2C0 3.10457 1.11929 4 2.5 4C3.88071 4 5 3.10457 5 2Z" fill="white"/>
</g>
<defs>
<clipPath id="clip0_899_487">
<rect width="5" height="14.666" fill="white"/>
</clipPath>
</defs>
</svg>
