<svg width="19" height="16" viewBox="0 0 19 16" fill="none" xmlns="http://www.w3.org/2000/svg">
<path d="M17.8135 0.5C18.0463 0.499538 18.2096 0.563727 18.3369 0.670898C18.4599 0.774501 18.5007 0.873639 18.5 0.99707V6C18.5 6.1272 18.4577 6.22749 18.3359 6.33008C18.2098 6.43631 18.0468 6.50046 17.8135 6.5H11.875C11.6403 6.5 11.4777 6.43574 11.3525 6.33008C11.2308 6.22721 11.1879 6.12624 11.1875 5.99902C11.1871 5.87403 11.2281 5.77372 11.3506 5.6709C11.4783 5.56368 11.6425 5.5 11.875 5.5H16.6182L16.0889 4.71973C15.4024 3.70802 14.466 2.91893 13.2959 2.35059C12.1261 1.78247 10.8586 1.5 9.5 1.5C7.41474 1.5 5.61499 2.11742 4.13086 3.36719C2.64373 4.61951 1.875 6.17193 1.875 8C1.875 9.82807 2.64373 11.3805 4.13086 12.6328C5.61499 13.8826 7.41474 14.5 9.5 14.5C10.9194 14.5 12.2307 14.1964 13.4248 13.583C14.6096 12.9743 15.5425 12.1491 16.207 11.1055C16.2978 10.9717 16.4251 10.8743 16.6133 10.8145C16.806 10.7532 16.9989 10.7496 17.2031 10.8066L17.21 10.8086C17.4036 10.8596 17.5089 10.9509 17.5762 11.0801C17.6134 11.1518 17.6181 11.1956 17.6172 11.2178C17.6164 11.238 17.6107 11.2699 17.5771 11.3193L17.5703 11.3291L17.5635 11.3398C16.8029 12.5896 15.7146 13.5966 14.2822 14.3584C12.8561 15.1169 11.2655 15.5 9.5 15.5C6.95299 15.5 4.82405 14.759 3.08301 13.293C1.34526 11.8296 0.5 10.0733 0.5 8C0.500001 5.92667 1.34526 4.1704 3.08301 2.70703C4.82405 1.24097 6.95299 0.5 9.5 0.5C10.8063 0.500001 12.0525 0.727164 13.2412 1.17969C14.4266 1.63101 15.4347 2.27308 16.2725 3.10449L17.125 3.95117V1C17.125 0.872846 17.1668 0.77269 17.2881 0.670898C17.4148 0.564547 17.5791 0.500466 17.8135 0.5Z" fill="white" stroke="white"/>
</svg>
