<svg width="19" height="16" viewBox="0 0 19 16" fill="none" xmlns="http://www.w3.org/2000/svg">
<path d="M2 0.015625H17C18.0959 0.015625 18.9844 0.90406 18.9844 2V14C18.9844 15.0959 18.0959 15.9844 17 15.9844H2C0.90406 15.9844 0.015625 15.0959 0.015625 14V2C0.015625 0.972619 0.79633 0.127095 1.79688 0.0253906L2 0.015625ZM4.11133 1.76172C2.99828 1.76172 2.09595 2.66435 2.0957 3.77734V12.2227C2.09594 13.3357 2.99828 14.2383 4.11133 14.2383H14.8887C16.0017 14.2383 16.9041 13.3356 16.9043 12.2227V3.77734C16.9041 2.66435 16.0017 1.76172 14.8887 1.76172H4.11133Z" fill="#E07A77" stroke="#E07A77" stroke-width="0.03125"/>
</svg>
