<svg width="34" height="31" viewBox="0 0 34 31" fill="none" xmlns="http://www.w3.org/2000/svg">
<path fill-rule="evenodd" clip-rule="evenodd" d="M18.9031 1.66071C18.9031 1.22027 18.7147 0.797856 18.3792 0.486412C18.0438 0.174968 17.5888 0 17.1144 0C16.64 0 16.185 0.174968 15.8495 0.486412C15.514 0.797856 15.3256 1.22027 15.3256 1.66071V3.33029C15.3256 3.77074 15.514 4.19314 15.8495 4.50459C16.185 4.81603 16.64 4.991 17.1144 4.991C17.5888 4.991 18.0438 4.81603 18.3792 4.50459C18.7147 4.19314 18.9031 3.77074 18.9031 3.33029V1.66071ZM15.712 6.44579C16.1228 6.22602 16.6109 6.1667 17.0689 6.28089C17.5268 6.39507 17.9172 6.67341 18.1542 7.05472L27.3557 21.8484C27.5892 22.2296 27.6507 22.6811 27.527 23.1043C27.4032 23.5275 27.1042 23.8881 26.6951 24.1074C26.286 24.3267 25.8001 24.3868 25.3435 24.2747C24.8868 24.1626 24.4964 23.8874 24.2575 23.5091L24.1264 23.2965L16.7518 24.8864C17.0815 26.0114 16.9595 27.2094 16.4085 28.2571C15.8576 29.3049 14.9153 30.131 13.7571 30.5817C12.5988 31.0324 11.3037 31.077 10.1127 30.707C8.92175 30.3371 7.91618 29.578 7.28326 28.5709L7.27849 28.5643L6.38172 27.1228L2.91388 27.869C2.6649 27.9226 2.40395 27.9006 2.16949 27.8061C1.93503 27.7116 1.73948 27.5497 1.61165 27.3442L0.159164 25.0081C0.0316733 24.8027 -0.0213795 24.5646 0.00781751 24.329C0.0370145 24.0934 0.146918 23.8727 0.321346 23.6995L15.192 8.93021L15.0561 8.71543C14.9385 8.52645 14.8622 8.31781 14.8315 8.10143C14.8008 7.88505 14.8164 7.66518 14.8773 7.4544C14.9382 7.24361 15.0433 7.04603 15.1865 6.87297C15.3297 6.6999 15.5083 6.55474 15.712 6.44579ZM10.0237 26.3367L13.2602 25.6392C13.4012 25.9886 13.3955 26.3744 13.2443 26.7201C13.093 27.0657 12.8072 27.3459 12.4436 27.5049C12.0801 27.6638 11.6654 27.69 11.282 27.5782C10.8986 27.4664 10.5746 27.2248 10.3743 26.9014L10.0237 26.3367ZM33.3493 15.0704C33.3493 15.5109 33.1608 15.9333 32.8254 16.2447C32.4899 16.5562 32.0349 16.7311 31.5605 16.7311H29.7622C29.2878 16.7311 28.8328 16.5562 28.4973 16.2447C28.1619 15.9333 27.9734 15.5109 27.9734 15.0704C27.9734 14.63 28.1619 14.2076 28.4973 13.8961C28.8328 13.5847 29.2878 13.4097 29.7622 13.4097H31.5581C32.0325 13.4097 32.4875 13.5847 32.823 13.8961C33.1584 14.2076 33.3493 14.63 33.3493 15.0704ZM4.4713 16.7311C4.94572 16.7311 5.4007 16.5562 5.73616 16.2447C6.07162 15.9333 6.26008 15.5109 6.26008 15.0704C6.26008 14.63 6.07162 14.2076 5.73616 13.8961C5.4007 13.5847 4.94572 13.4097 4.4713 13.4097H2.67299C2.19858 13.4097 1.74359 13.5847 1.40813 13.8961C1.07267 14.2076 0.884214 14.63 0.884214 15.0704C0.884214 15.5109 1.07267 15.9333 1.40813 16.2447C1.74359 16.5562 2.19858 16.7311 2.67299 16.7311H4.4713ZM9.67545 8.16629C9.34005 8.47728 8.88541 8.65197 8.41138 8.65197C7.93735 8.65197 7.48271 8.47728 7.14731 8.16629L5.6352 6.76243C5.45945 6.61039 5.31849 6.42705 5.22073 6.22333C5.12296 6.01962 5.07039 5.79971 5.06615 5.57673C5.06191 5.35374 5.1061 5.13225 5.19606 4.92546C5.28603 4.71867 5.41993 4.53083 5.58979 4.37313C5.75965 4.21543 5.96198 4.09111 6.18472 4.00759C6.40745 3.92406 6.64602 3.88304 6.8862 3.88698C7.12638 3.89091 7.36325 3.93972 7.58267 4.03049C7.80209 4.12125 7.99957 4.25212 8.16334 4.41529L9.67783 5.81693C9.84406 5.97115 9.97592 6.15428 10.0659 6.35583C10.1559 6.55739 10.2022 6.77343 10.2022 6.99161C10.2022 7.20979 10.1559 7.42583 10.0659 7.62738C9.97592 7.82894 9.84167 8.01206 9.67545 8.16629ZM28.5935 6.76243C28.9095 6.44761 29.0815 6.03122 29.0733 5.60099C29.0652 5.17075 28.8774 4.76025 28.5497 4.45598C28.222 4.15171 27.7798 3.97742 27.3164 3.96983C26.853 3.96224 26.4045 4.12194 26.0654 4.41529L24.5342 5.83243C24.1986 6.14397 24.0101 6.56652 24.0101 7.00711C24.0101 7.22527 24.0564 7.44129 24.1463 7.64284C24.2362 7.84439 24.368 8.02753 24.5342 8.18179C24.7004 8.33605 24.8976 8.45841 25.1147 8.5419C25.3318 8.62539 25.5645 8.66835 25.7995 8.66835C26.274 8.66835 26.7292 8.49333 27.0647 8.18179L28.5935 6.76243Z" fill="#AB524F"/>
</svg>
