<svg width="26" height="30" viewBox="0 0 26 30" fill="none" xmlns="http://www.w3.org/2000/svg">
<path fill-rule="evenodd" clip-rule="evenodd" d="M0.942857 0.942859C1.54507 0.339891 2.36209 0.000751932 3.21429 1.70891e-06H16.0714C16.2122 -0.000249749 16.3517 0.0272518 16.4818 0.080934C16.612 0.134616 16.7303 0.213426 16.83 0.312859L25.4014 8.88429C25.5009 8.98397 25.5797 9.10227 25.6334 9.23244C25.687 9.3626 25.7145 9.50206 25.7143 9.64286V26.7857C25.7143 27.6382 25.3756 28.4558 24.7728 29.0586C24.17 29.6614 23.3525 30 22.5 30H3.21429C2.3618 30 1.54424 29.6614 0.941443 29.0586C0.338647 28.4558 0 27.6382 0 26.7857V3.21429C0 2.36143 0.338572 1.54286 0.942857 0.942859ZM8.475 8.46429C8.76316 8.46429 9.04849 8.40753 9.31472 8.29726C9.58094 8.18698 9.82283 8.02535 10.0266 7.8216C10.2304 7.61784 10.392 7.37594 10.5023 7.10972C10.6125 6.84349 10.6693 6.55816 10.6693 6.27C10.6693 5.98184 10.6125 5.69651 10.5023 5.43028C10.392 5.16406 10.2304 4.92217 10.0266 4.71841C9.82283 4.51465 9.58094 4.35302 9.31472 4.24275C9.04849 4.13247 8.76316 4.07572 8.475 4.07572C7.89304 4.07572 7.33491 4.3069 6.92341 4.71841C6.5119 5.12992 6.28071 5.68804 6.28071 6.27C6.28071 6.85196 6.5119 7.41009 6.92341 7.8216C7.33491 8.2331 7.89304 8.46429 8.475 8.46429ZM4.02 18.2143C4.02 17.475 4.61786 16.875 5.35714 16.875H20.3571C20.6993 16.8938 21.0212 17.0428 21.257 17.2915C21.4927 17.5402 21.6244 17.8696 21.625 18.2123C21.6255 18.5549 21.4949 18.8848 21.2599 19.1342C21.025 19.3836 20.7035 19.5337 20.3614 19.5536H5.36143C5.00603 19.5536 4.66516 19.4125 4.41365 19.1614C4.16215 18.9103 4.02057 18.5697 4.02 18.2143ZM4.02 24.6429C4.02 23.9036 4.61786 23.3036 5.35714 23.3036H13.9286C14.2707 23.3224 14.5927 23.4714 14.8284 23.7201C15.0642 23.9687 15.1958 24.2982 15.1964 24.6408C15.1969 24.9835 15.0663 25.3134 14.8314 25.5628C14.5964 25.8122 14.2749 25.9622 13.9329 25.9821H5.36143C5.00603 25.9821 4.66516 25.8411 4.41365 25.59C4.16215 25.3389 4.02057 24.9983 4.02 24.6429ZM8.47714 9.93C6.97714 9.93 5.60786 10.4936 4.57286 11.4214C3.95786 11.9721 4.43786 12.8571 5.26286 12.8571H11.6871C12.5143 12.8571 12.9943 11.9721 12.3793 11.4214C11.307 10.4587 9.91819 9.9274 8.47714 9.93Z" fill="#C76865"/>
</svg>
