<svg width="34" height="27" viewBox="0 0 34 27" fill="none" xmlns="http://www.w3.org/2000/svg">
<path fill-rule="evenodd" clip-rule="evenodd" d="M32.486 7.32731C32.1594 7.42267 31.8062 7.4406 31.4676 7.379C31.129 7.31741 30.8188 7.17883 30.5731 6.97938L29.2245 5.87994L18.971 14.2242C18.8008 14.3627 18.5988 14.4727 18.3764 14.5477C18.154 14.6227 17.9156 14.6613 17.6749 14.6613C17.4342 14.6613 17.1958 14.6227 16.9735 14.5477C16.7511 14.4727 16.549 14.3627 16.3789 14.2242L12.4675 11.0412L3.14965 18.6239C2.98054 18.7663 2.77829 18.8798 2.5547 18.9579C2.3311 19.0359 2.09065 19.077 1.84735 19.0786C1.60406 19.0802 1.36281 19.0424 1.13767 18.9673C0.912531 18.8923 0.708016 18.7815 0.536058 18.6414C0.3641 18.5013 0.228143 18.3348 0.136119 18.1515C0.0440958 17.9682 -0.00215122 17.7719 7.6839e-05 17.5739C0.0023049 17.3759 0.0529634 17.1803 0.149097 16.9984C0.24523 16.8165 0.384912 16.652 0.559994 16.5145L11.1678 7.87603C11.338 7.73747 11.54 7.62755 11.7624 7.55256C11.9848 7.47756 12.2231 7.43896 12.4639 7.43896C12.7046 7.43896 12.9429 7.47756 13.1653 7.55256C13.3877 7.62755 13.5897 7.73747 13.7599 7.87603L17.6737 11.061L26.6324 3.77052L25.2839 2.67306C25.0383 2.47346 24.8674 2.2212 24.7912 1.94565C24.7149 1.6701 24.7364 1.38259 24.8531 1.11659C24.9698 0.850585 25.177 0.617032 25.4505 0.443114C25.724 0.269197 26.0525 0.162069 26.3979 0.1342C28.6284 -0.0447333 29.911 -0.0447333 32.0585 0.1342C32.4776 0.169464 32.8689 0.321188 33.1666 0.563816C33.4644 0.806444 33.6502 1.12515 33.6929 1.46626C33.9152 3.21185 33.9128 4.25761 33.6929 6.0708C33.6586 6.35173 33.5269 6.61896 33.3132 6.84139C33.0996 7.06382 32.8127 7.23233 32.486 7.32731ZM28.5209 10.3254C28.7978 10.107 29.1522 9.96517 29.5338 9.9202C29.9155 9.87522 30.3048 9.92936 30.6464 10.0749L33.0211 11.0889C33.3283 11.2205 33.5833 11.4204 33.7563 11.6654C33.9293 11.9104 34.0133 12.1903 33.9983 12.4726L33.324 25.5705C33.3045 25.9552 33.1028 26.3188 32.7613 26.5853C32.4198 26.8517 31.9648 27.0003 31.4917 27H26.674C26.512 27 26.3566 26.9476 26.2421 26.8544C26.1276 26.7612 26.0632 26.6348 26.0632 26.503V12.4746C26.063 12.4079 26.0794 12.3418 26.1113 12.2803C26.1432 12.2188 26.19 12.1632 26.2489 12.1167L28.5209 10.3254ZM23.0094 26.503C23.0094 26.6348 22.945 26.7612 22.8305 26.8544C22.7159 26.9476 22.5606 27 22.3986 27H13.2371C13.0751 27 12.9197 26.9476 12.8052 26.8544C12.6907 26.7612 12.6263 26.6348 12.6263 26.503V14.9439C12.6263 14.9041 12.663 14.8723 12.7118 14.8763C13.11 14.8922 13.5009 15.0155 13.8234 15.2441L17.8423 18.115C17.9575 18.1975 18.1067 18.2417 18.2602 18.2388C18.4137 18.2358 18.5601 18.1859 18.6705 18.0991L21.9735 15.4906C22.0597 15.4226 22.1687 15.3768 22.2868 15.3589C22.4048 15.341 22.5267 15.3518 22.6373 15.39C22.7478 15.4282 22.8421 15.4921 22.9082 15.5736C22.9744 15.6552 23.0096 15.7508 23.0094 15.8485V26.503ZM8.5244 17.6299L0.926454 23.9442C0.590184 24.2228 0.40159 24.5975 0.401194 24.988V25.5089C0.401194 26.332 1.22207 27 2.2335 27H8.96171C9.1237 27 9.27905 26.9476 9.39359 26.8544C9.50813 26.7612 9.57248 26.6348 9.57248 26.503V17.9778C9.57271 17.8789 9.53667 17.7821 9.46896 17.7C9.40125 17.6178 9.30496 17.554 9.19241 17.5166C9.07985 17.4793 8.95616 17.4701 8.83716 17.4903C8.71816 17.5104 8.60926 17.559 8.5244 17.6299Z" fill="#8B4946"/>
</svg>
