<svg width="36" height="28" viewBox="0 0 36 28" fill="none" xmlns="http://www.w3.org/2000/svg">
<path d="M15.4809 0.588379C16.2684 0.200975 17.1292 0 18.0008 0C18.8724 0 19.7331 0.200975 20.5206 0.588379L35.1417 7.77184C35.3965 7.89686 35.612 8.09376 35.7638 8.33998C35.9156 8.5862 35.9974 8.87179 35.9999 9.16402C36.0024 9.45624 35.9255 9.74329 35.778 9.99227C35.6304 10.2413 35.4183 10.4421 35.1657 10.5718L20.6166 18.057C19.8037 18.4758 18.9084 18.6937 18.0008 18.6937C17.0931 18.6937 16.1978 18.4758 15.3849 18.057L3.00167 11.6856V18.6668C3.00167 19.0793 2.84364 19.475 2.56236 19.7667C2.28107 20.0584 1.89956 20.2223 1.50176 20.2223C1.10396 20.2223 0.722451 20.0584 0.441163 19.7667C0.159875 19.475 0.00184952 19.0793 0.00184952 18.6668V9.25581C-0.0128943 8.94816 0.060772 8.64289 0.21351 8.3787C0.366249 8.11451 0.591182 7.9033 0.859798 7.77184L15.4809 0.588379ZM6.00149 16.7037V21.7779C6.00153 21.9825 6.04051 22.1851 6.11618 22.3741C6.19185 22.5631 6.30273 22.7347 6.44246 22.8792L6.44846 22.8885L6.51746 22.9538L6.69745 23.1281C6.84744 23.2733 7.06443 23.4672 7.34841 23.7098C7.90938 24.1858 8.71933 24.8143 9.73027 25.4458C11.7401 26.6934 14.632 28 18.0008 28C21.3696 28 24.2644 26.6934 26.2713 25.4458C27.351 24.7736 28.3674 23.9976 29.3071 23.1281L29.4871 22.9538L29.5351 22.9041L29.5531 22.8854L29.5561 22.8823L29.5621 22.8792C29.7013 22.7345 29.8116 22.5627 29.8868 22.3737C29.9619 22.1848 30.0004 21.9823 30.0001 21.7779V16.7006L21.9485 20.8445C20.7216 21.4761 19.3705 21.8047 18.0008 21.8047C16.6311 21.8047 15.2799 21.4761 14.053 20.8445L6.00149 16.7037Z" fill="#8B4946"/>
</svg>
