<svg width="28" height="34" viewBox="0 0 28 34" fill="none" xmlns="http://www.w3.org/2000/svg">
<path d="M13.9919 0C11.0857 0 8.29851 1.16447 6.24351 3.23724C4.18851 5.31001 3.03402 8.12129 3.03402 11.0526V16.6232C3.03425 16.8681 2.97798 17.1097 2.86965 17.3289L0.181843 22.7495C0.0505459 23.0143 -0.0114512 23.3086 0.00173962 23.6044C0.0149304 23.9002 0.102871 24.1876 0.257209 24.4395C0.411548 24.6913 0.627159 24.8992 0.883565 25.0434C1.13997 25.1876 1.42866 25.2632 1.72221 25.2632H26.2616C26.5551 25.2632 26.8438 25.1876 27.1002 25.0434C27.3566 24.8992 27.5723 24.6913 27.7266 24.4395C27.8809 24.1876 27.9689 23.9002 27.9821 23.6044C27.9953 23.3086 27.9333 23.0143 27.802 22.7495L25.1157 17.3289C25.0069 17.1099 24.95 16.8682 24.9498 16.6232V11.0526C24.9498 8.12129 23.7953 5.31001 21.7403 3.23724C19.6853 1.16447 16.8981 0 13.9919 0ZM13.9919 30C13.0203 30.0005 12.0725 29.6971 11.2791 29.1315C10.4856 28.5659 9.88565 27.766 9.56179 26.8421H18.422C18.0982 27.766 17.4982 28.5659 16.7047 29.1315C15.9113 29.6971 14.9635 30.0005 13.9919 30Z" fill="white"/>
</svg>
