<svg width="57" height="54" viewBox="0 0 57 54" fill="none" xmlns="http://www.w3.org/2000/svg">
<path fill-rule="evenodd" clip-rule="evenodd" d="M28.4834 2.96658e-10C32.224 -1.66202e-05 35.9278 0.698345 39.3836 2.05521C42.8394 3.41208 45.9794 5.40088 48.6244 7.90805C51.2693 10.4152 53.3674 13.3917 54.7988 16.6675C56.2303 19.9433 56.967 23.4542 56.967 26.9999C56.967 41.9116 44.2145 54 28.4834 54C12.7526 54 0 41.9116 0 26.9999C0 12.0884 12.7526 2.96658e-10 28.4834 2.96658e-10ZM31.3319 29.7H25.6351C18.5835 29.7 12.5294 33.7484 9.91826 39.5273C14.0498 45.019 20.8255 48.6 28.4834 48.6C36.1414 48.6 42.9171 45.019 47.0488 39.527C44.4376 33.7484 38.3836 29.7 31.3319 29.7ZM28.4834 8.09999C23.7642 8.09999 19.9384 11.7265 19.9384 16.2C19.9384 20.6735 23.7642 24.3 28.4834 24.3C33.2027 24.3 37.0285 20.6735 37.0285 16.2C37.0285 11.7265 33.2029 8.09999 28.4834 8.09999Z" fill="white"/>
</svg>
